<?xml version="1.0" encoding="UTF-8" standalone="no"?>
<svg width="24px" height="24px" viewBox="0 0 24 24" version="1.1" xmlns="http://www.w3.org/2000/svg" xmlns:xlink="http://www.w3.org/1999/xlink" xmlns:sketch="http://www.bohemiancoding.com/sketch/ns">
    <title>arrow-right</title>
    <description>Created with Sketch (http://www.bohemiancoding.com/sketch)</description>
    <defs></defs>
    <g id="Page-1" stroke="none" stroke-width="1" fill="none" fill-rule="evenodd" sketch:type="MSPage">
        <path d="M-26.1875004,12.3766551 C-26.1875004,11.8243703 -25.7397851,11.3766551 -25.1875004,11.3766551 L-15.3590732,11.3766551 L-15.3590732,1.5404217 C-15.3590732,0.98813695 -14.911358,0.5404217 -14.3590732,0.5404217 C-13.8067885,0.5404217 -13.3590732,0.98813695 -13.3590732,1.5404217 L-13.3590732,11.3766551 L-3.53064611,11.3766551 C-2.97836136,11.3766551 -2.53064611,11.8243703 -2.53064611,12.3766551 C-2.53064611,12.9289398 -2.97836136,13.3766551 -3.53064611,13.3766551 L-13.3590732,13.3766551 L-13.3590732,23.214001 C-13.3590732,23.7662857 -13.8067885,24.214001 -14.3590732,24.214001 C-14.911358,24.214001 -15.3590732,23.7662857 -15.3590732,23.214001 L-15.3590732,13.3766551 L-25.1875004,13.3766551 C-25.7397851,13.3766551 -26.1875004,12.9289398 -26.1875004,12.3766551 Z" id="Line-copy-2" fill="#000000" sketch:type="MSShapeGroup" transform="translate(-14.359073, 12.368849) rotate(-315.000000) translate(14.359073, -12.368849) "></path>
        <path d="M12.297781,26.3688488 C12.297781,25.8165641 12.7454963,25.3688488 13.297781,25.3688488 C13.8500658,25.3688488 14.297781,25.8165641 14.297781,26.3688488 L14.297781,32.3726073 C14.297781,32.9271276 14.7356624,33.3766551 15.3007103,33.3766551 L21.297781,33.3766551 C21.8500658,33.3766551 22.297781,33.8243703 22.297781,34.3766551 C22.297781,34.9289398 21.8500658,35.3766551 21.297781,35.3766551 L14.2951727,35.3766551 C13.1920437,35.3766551 12.297781,34.4800202 12.297781,33.3775309 L12.297781,26.3688488 Z" id="Line-copy" fill="#000000" sketch:type="MSShapeGroup" transform="translate(17.297781, 30.368849) rotate(-315.000000) translate(-17.297781, -30.368849) "></path>
        <path d="M2.46935389,5.12620814 C2.46935389,4.57392339 2.91706914,4.12620814 3.46935389,4.12620814 C4.02163864,4.12620814 4.46935389,4.57392339 4.46935389,5.12620814 L4.46935389,15.378253 C4.46935389,15.9296552 4.92400318,16.3766551 5.46706325,16.3766551 L15.7119946,16.3766551 C16.2642793,16.3766551 16.7119946,16.8243703 16.7119946,17.3766551 C16.7119946,17.9289398 16.2642793,18.3766551 15.7119946,18.3766551 L4.46624917,18.3766551 C3.36339436,18.3766551 2.46935389,17.4866809 2.46935389,16.3785827 L2.46935389,5.12620814 Z" id="Line-copy-3" fill="#000000" sketch:type="MSShapeGroup" transform="translate(9.469354, 11.368849) rotate(-135.000000) translate(-9.469354, -11.368849) "></path>
    </g>
</svg>