<?xml version="1.0" encoding="UTF-8" standalone="no"?>
<svg width="32px" height="32px" viewBox="0 0 32 32" version="1.1" xmlns="http://www.w3.org/2000/svg" xmlns:xlink="http://www.w3.org/1999/xlink" xmlns:sketch="http://www.bohemiancoding.com/sketch/ns">
    <title>clock</title>
    <description>Created with Sketch (http://www.bohemiancoding.com/sketch)</description>
    <defs></defs>
    <g id="Page-1" stroke="none" stroke-width="1" fill="none" fill-rule="evenodd" sketch:type="MSPage">
        <path d="M32,16 C32,7.16344357 24.8365564,0 16,0 C7.16344357,0 0,7.16344357 0,16 C0,24.8365564 7.16344357,32 16,32 C24.8365564,32 32,24.8365564 32,16 Z M2,16 C2,8.26801307 8.26801307,2 16,2 C23.7319869,2 30,8.26801307 30,16 C30,23.7319869 23.7319869,30 16,30 C8.26801307,30 2,23.7319869 2,16 Z" id="Oval-1" fill="#000000" sketch:type="MSShapeGroup"></path>
        <path d="M14,9 C14.5522847,9 15,9.45303631 15,9.99703014 L15,17 L22.0029699,17 C22.5536144,17 23,17.4438648 23,18 C23,18.5522847 22.5443356,19 22.0046024,19 L13.9953976,19 C13.4456547,19 13,18.5443356 13,18.0046024 L13,9.99539757 C13,9.44565467 13.4438648,9 14,9 Z M14,17 L14,18 L15,18 L22.0029699,18 C22,17.9960333 13.9953976,18 13.9953976,18 C14.0029281,18 14,9.99539757 14,9.99539757 C13.9973432,10 14,17 14,17 Z" id="Rectangle-1" fill="#000000" sketch:type="MSShapeGroup"></path>
    </g>
</svg>