<?xml version="1.0" encoding="UTF-8" standalone="no"?>
<svg width="16px" height="16px" viewBox="0 0 16 16" version="1.1" xmlns="http://www.w3.org/2000/svg" xmlns:xlink="http://www.w3.org/1999/xlink" xmlns:sketch="http://www.bohemiancoding.com/sketch/ns">
    <title>clock-s</title>
    <description>Created with Sketch (http://www.bohemiancoding.com/sketch)</description>
    <defs></defs>
    <g id="Page-1" stroke="none" stroke-width="1" fill="none" fill-rule="evenodd" sketch:type="MSPage">
        <path d="M16,8 C16,3.58172179 12.4182782,0 8,0 C3.58172179,0 0,3.58172179 0,8 C0,12.4182782 3.58172179,16 8,16 C12.4182782,16 16,12.4182782 16,8 Z M8,3.99703014 L8,8 L12.0029699,8 C12.5536144,8 13,8.4438648 13,9 C13,9.5522847 12.5443356,10 12.0046024,10 L6.9953976,10 C6.4456547,10 6,9.5443356 6,9.0046024 L6,3.99539757 C6,3.44565467 6.4438648,3 7,3 C7.5522847,3 8,3.45303631 8,3.99703014 Z" id="Oval-1" fill="#000000" sketch:type="MSShapeGroup"></path>
    </g>
</svg>