<?xml version="1.0" encoding="UTF-8" standalone="no"?>
<svg width="16px" height="16px" viewBox="0 0 16 16" version="1.1" xmlns="http://www.w3.org/2000/svg" xmlns:xlink="http://www.w3.org/1999/xlink" xmlns:sketch="http://www.bohemiancoding.com/sketch/ns">
    <title>distance-s</title>
    <description>Created with Sketch (http://www.bohemiancoding.com/sketch)</description>
    <defs></defs>
    <g id="Page-1" stroke="none" stroke-width="1" fill="none" fill-rule="evenodd" sketch:type="MSPage">
        <path d="M3.21966991,15.2803301 C3.51256313,15.5732233 3.98743687,15.5732233 4.28033009,15.2803301 C4.5732233,14.9874369 4.5732233,14.5125631 4.28033009,14.2196699 L1.78033009,11.7196699 C1.48743687,11.4267767 1.01256313,11.4267767 0.719669914,11.7196699 C0.426776695,12.0125631 0.426776695,12.4874369 0.719669914,12.7803301 L3.21966991,15.2803301 Z" id="Line" fill="#000000" sketch:type="MSShapeGroup"></path>
        <path d="M4.28033009,12.7803301 C4.5732233,12.4874369 4.5732233,12.0125631 4.28033009,11.7196699 C3.98743687,11.4267767 3.51256313,11.4267767 3.21966991,11.7196699 L0.719669914,14.2196699 C0.426776695,14.5125631 0.426776695,14.9874369 0.719669914,15.2803301 C1.01256313,15.5732233 1.48743687,15.5732233 1.78033009,15.2803301 L4.28033009,12.7803301 Z" id="Line" fill="#000000" sketch:type="MSShapeGroup"></path>
        <path d="M14.2196699,4.28033009 C14.5125631,4.5732233 14.9874369,4.5732233 15.2803301,4.28033009 C15.5732233,3.98743687 15.5732233,3.51256313 15.2803301,3.21966991 L12.7803301,0.719669914 C12.4874369,0.426776695 12.0125631,0.426776695 11.7196699,0.719669914 C11.4267767,1.01256313 11.4267767,1.48743687 11.7196699,1.78033009 L14.2196699,4.28033009 Z" id="Line" fill="#000000" sketch:type="MSShapeGroup"></path>
        <path d="M15.2803301,1.78033009 C15.5732233,1.48743687 15.5732233,1.01256313 15.2803301,0.719669914 C14.9874369,0.426776695 14.5125631,0.426776695 14.2196699,0.719669914 L11.7196699,3.21966991 C11.4267767,3.51256313 11.4267767,3.98743687 11.7196699,4.28033009 C12.0125631,4.5732233 12.4874369,4.5732233 12.7803301,4.28033009 L15.2803301,1.78033009 Z" id="Line" fill="#000000" sketch:type="MSShapeGroup"></path>
        <path d="M7.13466276,13.8454943 C7.5099378,13.6701617 7.67202316,13.223806 7.49669056,12.8485309 C7.32135795,12.4732559 6.87500226,12.3111705 6.49972723,12.4865031 C6.25138491,12.6025314 5.97262971,12.7084432 5.6624782,12.8033034 C5.26637714,12.9244513 5.04348358,13.3437645 5.16463151,13.7398655 C5.28577945,14.1359666 5.70509261,14.3588602 6.10119367,14.2377122 C6.47669863,14.1228636 6.82092101,13.9920778 7.13466276,13.8454943 Z M9.54417559,9.88901945 C9.49150305,9.47816853 9.11574303,9.18780759 8.70489211,9.24048013 C8.2940412,9.29315268 8.00368025,9.66891269 8.0563528,10.0797636 C8.09071133,10.3477635 8.08553496,10.6007534 8.0381838,10.8362709 C7.9565393,11.2423584 8.21955231,11.6377433 8.6256398,11.7193878 C9.03172729,11.8010323 9.42711219,11.5380193 9.50875669,11.1319318 C9.58992156,10.7282299 9.59843317,10.3122338 9.54417559,9.88901945 Z M8.08552597,6.08223752 C8.0066415,5.67560486 7.61305211,5.40991246 7.20641946,5.48879692 C6.7997868,5.56768138 6.53409439,5.96127077 6.61297886,6.36790343 C6.68620275,6.74535705 6.79697319,7.111072 6.93258407,7.45776608 C7.08347304,7.8435191 7.51850732,8.03391404 7.90426035,7.88302508 C8.29001337,7.73213612 8.48040831,7.29710183 8.32951935,6.9113488 C8.22509806,6.64439205 8.14021386,6.36414199 8.08552597,6.08223752 Z M9.35100046,3.55455568 C9.73264974,3.39356905 9.91153217,2.95367572 9.75054553,2.57202643 C9.5895589,2.19037714 9.14966557,2.01149472 8.76801628,2.17248136 C8.36680726,2.34171864 8.01795771,2.54926853 7.72144929,2.79380883 C7.40189415,3.05735653 7.35649115,3.53005477 7.62003885,3.84960991 C7.88358655,4.16916505 8.35628479,4.21456805 8.67583993,3.95102035 C8.85695249,3.80165083 9.08045579,3.66867636 9.35100046,3.55455568 Z" id="Path-12-copy" fill="#000000" sketch:type="MSShapeGroup"></path>
    </g>
</svg>