<?xml version="1.0" encoding="UTF-8" standalone="no"?>
<svg width="32px" height="32px" viewBox="0 0 32 32" version="1.1" xmlns="http://www.w3.org/2000/svg" xmlns:xlink="http://www.w3.org/1999/xlink" xmlns:sketch="http://www.bohemiancoding.com/sketch/ns">
    <title>users</title>
    <description>Created with Sketch (http://www.bohemiancoding.com/sketch)</description>
    <defs></defs>
    <g id="Page-1" stroke="none" stroke-width="1" fill="none" fill-rule="evenodd" sketch:type="MSPage">
        <path d="M10.4521806,13.2426122 C8.39837363,12.1503095 7,9.98845862 7,7.5 C7,3.91014898 9.91014898,1 13.5,1 C14.8457031,1 16.0958929,1.40894123 17.1330767,2.10933113 C16.1367654,2.27039376 15.1984654,2.60463326 14.3500532,3.08017296 C14.074782,3.02754725 13.790608,3 13.5,3 C11.0147185,3 9,5.01471848 9,7.5 C9,8.57259181 9.37525989,9.55753692 10.0016523,10.3307079 C10.0005525,10.3870062 10,10.4434386 10,10.5 C10,11.4596538 10.1590325,12.3821635 10.4521806,13.2426122 Z" id="Oval-6-copy-2" fill="#000000" sketch:type="MSShapeGroup"></path>
        <path d="M12.6904992,16 L7.9913008,16 C3.57782724,16 0,19.5865907 0,23.9942017 L0,25.007983 C0,26.1081436 0.898338318,27 2.00732994,27 L4,27 L4,27 L4,26.7209473 C4,26.1319095 4.0556822,25.5563131 4.16181848,24.9997047 C2.82905574,24.9998565 2.00732994,25 2.00732994,25 C1.99968018,25 2,23.9942017 2,23.9942017 C2,20.6881312 4.68542366,18 7.9913008,18 L15.6479871,18 L15.7098844,18 C14.5532925,17.5695557 13.5231692,16.8792275 12.6904992,16 L12.6904992,16 Z" id="Rectangle-9-copy-2" fill="#000000" sketch:type="MSShapeGroup"></path>
        <path d="M18.5,17 C22.089851,17 25,14.089851 25,10.5 C25,6.91014898 22.089851,4 18.5,4 C14.910149,4 12,6.91014898 12,10.5 C12,14.089851 14.910149,17 18.5,17 Z M18.5,15 C16.0147185,15 14,12.9852815 14,10.5 C14,8.01471848 16.0147185,6 18.5,6 C20.9852815,6 23,8.01471849 23,10.5 C23,12.9852815 20.9852815,15 18.5,15 Z" id="Oval-6-copy" fill="#000000" sketch:type="MSShapeGroup"></path>
        <path d="M29.9926701,30 C31.1012878,30 32,29.0998238 32,28.007983 L32,26.9942017 C32,22.579126 28.4146085,19 24.0086992,19 L12.9913008,19 C8.57782724,19 5,22.5865907 5,26.9942017 L5,28.007983 C5,29.1081436 5.89833832,30 7.00732994,30 L29.9926701,30 Z M12.9913008,21 L24.0086992,21 C27.3127816,21 30,23.6864374 30,26.9942017 L30,28.007983 C30,27.9959834 7.00732994,28 7.00732994,28 C6.99968018,28 7,26.9942017 7,26.9942017 C7,23.6881312 9.68542366,21 12.9913008,21 Z" id="Rectangle-9-copy" fill="#000000" sketch:type="MSShapeGroup"></path>
    </g>
</svg>