<?xml version="1.0" encoding="UTF-8" standalone="no"?>
<svg width="32px" height="32px" viewBox="0 0 32 32" version="1.1" xmlns="http://www.w3.org/2000/svg" xmlns:xlink="http://www.w3.org/1999/xlink" xmlns:sketch="http://www.bohemiancoding.com/sketch/ns">
    <title>api</title>
    <description>Created with Sketch (http://www.bohemiancoding.com/sketch)</description>
    <defs></defs>
    <g id="Page-1" stroke="none" stroke-width="1" fill="none" fill-rule="evenodd" sketch:type="MSPage">
        <path d="M4.99,24.3 C4.99,23.7599973 5.00499985,23.2800021 5.035,22.86 C5.06500015,22.4399979 5.0999998,22.035002 5.14,21.645 C5.1800002,21.254998 5.21499985,20.8650019 5.245,20.475 C5.27500015,20.084998 5.29,19.6500024 5.29,19.17 C5.29,18.9099987 5.2300006,18.6500013 5.11,18.39 C4.9899994,18.1299987 4.7700016,17.8950011 4.45,17.685 C4.1299984,17.4749989 3.70500265,17.3050006 3.175,17.175 C2.64499735,17.0449993 1.980004,16.9700001 1.18,16.95 L1.18,14.37 C1.980004,14.3499999 2.64499735,14.2750007 3.175,14.145 C3.70500265,14.0149994 4.1299984,13.8450011 4.45,13.635 C4.7700016,13.424999 4.9899994,13.1900013 5.11,12.93 C5.2300006,12.6699987 5.29,12.4100013 5.29,12.15 C5.29,11.6899977 5.27500015,11.260002 5.245,10.86 C5.21499985,10.459998 5.1800002,10.0650019 5.14,9.675 C5.0999998,9.28499805 5.06500015,8.87500215 5.035,8.445 C5.00499985,8.01499785 4.99,7.5400026 4.99,7.02 C4.99,5.3999919 5.4399955,4.28500305 6.34,3.675 C7.2400045,3.06499695 8.6499904,2.76 10.57,2.76 L12.88,2.76 L12.88,5.1 L11.65,5.1 C11.0299969,5.1 10.520002,5.1299997 10.12,5.19 C9.719998,5.2500003 9.4100011,5.3599992 9.19,5.52 C8.9699989,5.6800008 8.81500045,5.89499865 8.725,6.165 C8.63499955,6.43500135 8.59,6.7799979 8.59,7.2 C8.59,8.000004 8.61499975,8.7899961 8.665,9.57 C8.71500025,10.3500039 8.74,11.1899955 8.74,12.09 C8.74,13.2300057 8.5100023,14.0549975 8.05,14.565 C7.5899977,15.0750025 6.8200054,15.4199991 5.74,15.6 L5.74,15.72 C6.8200054,15.9000009 7.5899977,16.2449974 8.05,16.755 C8.5100023,17.2650025 8.74,18.0899943 8.74,19.23 C8.74,20.1500046 8.71500025,20.9899962 8.665,21.75 C8.61499975,22.5100038 8.59,23.2999959 8.59,24.12 C8.59,24.5400021 8.63499955,24.8849986 8.725,25.155 C8.81500045,25.4250014 8.9699989,25.6399992 9.19,25.8 C9.4100011,25.9600008 9.719998,26.0699997 10.12,26.13 C10.520002,26.1900003 11.0299969,26.22 11.65,26.22 L12.88,26.22 L12.88,28.56 L10.57,28.56 C8.6499904,28.56 7.2400045,28.255003 6.34,27.645 C5.4399955,27.0349969 4.99,25.9200081 4.99,24.3 Z M20.38,26.22 C21.0000031,26.22 21.504998,26.1900003 21.895,26.13 C22.2850019,26.0699997 22.5899989,25.9600008 22.81,25.8 C23.0300011,25.6399992 23.1849996,25.4250014 23.275,25.155 C23.3650004,24.8849986 23.41,24.5400021 23.41,24.12 C23.41,23.2999959 23.3900002,22.5100038 23.35,21.75 C23.3099998,20.9899962 23.29,20.1500046 23.29,19.23 C23.29,18.0899943 23.5199977,17.2650025 23.98,16.755 C24.4400023,16.2449974 25.2099946,15.9000009 26.29,15.72 L26.29,15.6 C25.2099946,15.4199991 24.4400023,15.0750025 23.98,14.565 C23.5199977,14.0549975 23.29,13.2300057 23.29,12.09 C23.29,11.1899955 23.3099998,10.3500039 23.35,9.57 C23.3900002,8.7899961 23.41,8.000004 23.41,7.2 C23.41,6.7799979 23.3650004,6.43500135 23.275,6.165 C23.1849996,5.89499865 23.0300011,5.6800008 22.81,5.52 C22.5899989,5.3599992 22.2850019,5.2500003 21.895,5.19 C21.504998,5.1299997 21.0000031,5.1 20.38,5.1 L19.15,5.1 L19.15,2.76 L21.46,2.76 C23.3800096,2.76 24.7899955,3.06499695 25.69,3.675 C26.5900045,4.28500305 27.04,5.3999919 27.04,7.02 C27.04,7.5400026 27.0250001,8.01499785 26.995,8.445 C26.9649998,8.87500215 26.9250002,9.28499805 26.875,9.675 C26.8249997,10.0650019 26.7850002,10.459998 26.755,10.86 C26.7249999,11.260002 26.71,11.6899977 26.71,12.15 C26.71,12.4100013 26.7699994,12.6699987 26.89,12.93 C27.0100006,13.1900013 27.2299984,13.424999 27.55,13.635 C27.8700016,13.8450011 28.2949974,14.0149994 28.825,14.145 C29.3550026,14.2750007 30.0299959,14.3499999 30.85,14.37 L30.85,16.95 C30.0299959,16.9700001 29.3550026,17.0449993 28.825,17.175 C28.2949974,17.3050006 27.8700016,17.4749989 27.55,17.685 C27.2299984,17.8950011 27.0100006,18.1299987 26.89,18.39 C26.7699994,18.6500013 26.71,18.9099987 26.71,19.17 C26.71,19.6500024 26.7249999,20.084998 26.755,20.475 C26.7850002,20.8650019 26.8249997,21.254998 26.875,21.645 C26.9250002,22.035002 26.9649998,22.4399979 26.995,22.86 C27.0250001,23.2800021 27.04,23.7599973 27.04,24.3 C27.04,25.9200081 26.5900045,27.0349969 25.69,27.645 C24.7899955,28.255003 23.3800096,28.56 21.46,28.56 L19.15,28.56 L19.15,26.22 L20.38,26.22 Z" id="{}" fill="#000000" sketch:type="MSShapeGroup"></path>
    </g>
</svg>