<?xml version="1.0" encoding="UTF-8" standalone="no"?>
<svg width="32px" height="32px" viewBox="0 0 32 32" version="1.1" xmlns="http://www.w3.org/2000/svg" xmlns:xlink="http://www.w3.org/1999/xlink" xmlns:sketch="http://www.bohemiancoding.com/sketch/ns">
    <title>insights</title>
    <description>Created with Sketch (http://www.bohemiancoding.com/sketch)</description>
    <defs></defs>
    <g id="Page-1" stroke="none" stroke-width="1" fill="none" fill-rule="evenodd" sketch:type="MSPage">
        <path d="M31,16 C31,7.71572834 24.2842717,1 16,1 C7.71572834,1 1,7.71572834 1,16 C1,24.2842717 7.71572834,31 16,31 C24.2842717,31 31,24.2842717 31,16 Z M29,16 C29,8.8202979 23.1797021,3 16,3 C8.8202979,3 3,8.8202979 3,16 C3,23.1797021 8.8202979,29 16,29 C23.1797021,29 29,23.1797021 29,16 Z M26,16 C26,10.4771522 21.5228478,6 16,6 C10.4771522,6 6,10.4771522 6,16 C6,21.5228478 10.4771522,26 16,26 C21.5228478,26 26,21.5228478 26,16 Z M17.0190278,9.47337713 C17.0159877,8.92110075 16.5658146,8.47585682 16.0135383,8.47889699 C11.8826543,8.50163663 8.4152972,11.6864239 8.47899106,15.9954926 C8.48715369,16.5477171 8.94143715,16.9887663 9.49366157,16.9806037 C10.045886,16.972441 10.4869352,16.5181576 10.4787726,15.9659332 C10.4322486,12.8184517 12.9610528,10.4957306 16.0245477,10.4788667 C16.5768241,10.4758265 17.022068,10.0256535 17.0190278,9.47337713 Z" id="Oval-1-copy" fill="#000000" sketch:type="MSShapeGroup"></path>
    </g>
</svg>