<?xml version="1.0" encoding="UTF-8" standalone="no"?>
<svg width="32px" height="32px" viewBox="0 0 32 32" version="1.1" xmlns="http://www.w3.org/2000/svg" xmlns:xlink="http://www.w3.org/1999/xlink" xmlns:sketch="http://www.bohemiancoding.com/sketch/ns">
    <title>mail</title>
    <description>Created with Sketch (http://www.bohemiancoding.com/sketch)</description>
    <defs></defs>
    <g id="Page-1" stroke="none" stroke-width="1" fill="none" fill-rule="evenodd" sketch:type="MSPage">
        <g id="mail" sketch:type="MSLayerGroup" transform="translate(0.000000, 4.000000)" fill="#000000">
            <g id="Page-1" sketch:type="MSShapeGroup">
                <g id="mail">
                    <g id="Page-1">
                        <path d="M2.00174332,0 L29.9982567,0 C31.103789,0 31.3529644,0.60659587 30.5376911,1.37091461 L17.4623089,13.6290854 C16.654698,14.3862206 15.3529644,14.3934041 14.5376911,13.6290854 L1.46230891,1.37091461 C0.654698001,0.61377938 0.889261723,0 2.00174332,0 L2.00174332,0 L2.00174332,0 Z M3.53759766,1.00933838 L28.4821598,0.989743225 L16.7783678,12.8995482 C16.3522176,13.299064 15.6490573,13.3002592 15.2216322,12.8995482 L3.53759766,1.00933838 Z" id="Triangle-1-copy-3"></path>
                        <path d="M12.7849019,11.1867892 L1.49438585,21.6351843 C0.675840069,22.3926776 0.914720318,23 2.01894591,23 L29.9823681,23 C31.0935348,23 31.3214473,22.3889512 30.5069282,21.6351843 L19.2157735,11.1861982 L18.3769543,11.9201649 L18.536568,11.9201464 L28.4335308,21.9996908 L3.58914973,21.9845692 L13.4641074,11.9207373 L13.6236786,11.9207187 L12.7849019,11.1867892 Z" id="Triangle-1"></path>
                        <path d="M0,2.00086422 L0,20.9991358 C0,22.1041826 0.889261723,23 2.00174332,23 L29.9982567,23 C31.103789,23 32,22.0983727 32,20.9991358 L32,2.00086422 C32,0.89581743 31.1107383,0 29.9982567,0 L2.00174332,0 C0.89621101,0 0,0.90162726 0,2.00086422 L0,2.00086422 L0,2.00086422 Z M29.0650396,2 C29.5852395,2 30,2.40285314 30,2.90554382 L30,20.0944562 C30,20.5914497 29.5792069,21 29.0650396,21 L2.93496043,21 C2.41476042,21 2,20.5971469 2,20.0944562 L2,2.90554382 C2,2.40855026 2.42079303,2 2.93496043,2 L29.0650396,2 L29.0650396,2 Z" id="Rectangle-1"></path>
                    </g>
                </g>
            </g>
        </g>
    </g>
</svg>