<?xml version="1.0" encoding="UTF-8" standalone="no"?>
<svg width="16px" height="16px" viewBox="0 0 16 16" version="1.1" xmlns="http://www.w3.org/2000/svg" xmlns:xlink="http://www.w3.org/1999/xlink" xmlns:sketch="http://www.bohemiancoding.com/sketch/ns">
    <title>users-s</title>
    <description>Created with Sketch (http://www.bohemiancoding.com/sketch)</description>
    <defs></defs>
    <g id="Page-1" stroke="none" stroke-width="1" fill="none" fill-rule="evenodd" sketch:type="MSPage">
        <g id="users" sketch:type="MSLayerGroup" transform="translate(0.000000, 1.000000)">
            <g id="icomoon-ignore"></g>
            <path d="M10.6666667,11.2882617 L10.6666667,10.5151172 C11.6458056,9.93316406 12.4444444,8.48232422 12.4444444,7.03125 C12.4444444,4.70129883 12.4444444,2.8125 9.77777778,2.8125 C7.11111111,2.8125 7.11111111,4.70129883 7.11111111,7.03125 C7.11111111,8.48232422 7.90975,9.93316406 8.88888889,10.5151172 L8.88888889,11.2882617 C5.87358333,11.5482422 3.55555556,13.1108203 3.55555556,15 L16,15 C16,13.1108203 13.6819722,11.5482422 10.6666667,11.2882617 L10.6666667,11.2882617 Z" id="Shape" fill="#000000" sketch:type="MSShapeGroup"></path>
            <path d="M4.54438889,11.6503125 C5.31258333,11.1207715 6.26772222,10.7181445 7.31922222,10.472373 C7.11013889,10.2118652 6.9205,9.92126953 6.75683333,9.60782227 C6.33441667,8.79873047 6.11111111,7.90775391 6.11111111,7.03125 C6.11111111,5.77086914 6.11111111,4.58041992 6.53611111,3.60700195 C6.94869444,2.66211914 7.69066667,2.07629883 8.74752778,1.85668945 C8.51261111,0.736376953 7.88725,0 6.22222222,0 C3.55555556,0 3.55555556,1.88879883 3.55555556,4.21875 C3.55555556,5.66982422 4.35419444,7.12066406 5.33333333,7.70261719 L5.33333333,8.47576172 C2.31802778,8.73574219 0,10.2983203 0,12.1875 L3.87508333,12.1875 C4.07672222,11.9983887 4.30002778,11.8187695 4.54438889,11.6503125 L4.54438889,11.6503125 Z" id="Shape" fill="#000000" sketch:type="MSShapeGroup"></path>
        </g>
    </g>
</svg>