<?xml version="1.0" encoding="UTF-8" standalone="no"?>
<svg width="32px" height="32px" viewBox="0 0 32 32" version="1.1" xmlns="http://www.w3.org/2000/svg" xmlns:xlink="http://www.w3.org/1999/xlink" xmlns:sketch="http://www.bohemiancoding.com/sketch/ns">
    <title>organisation</title>
    <description>Created with Sketch (http://www.bohemiancoding.com/sketch)</description>
    <defs></defs>
    <g id="Page-1" stroke="none" stroke-width="1" fill="none" fill-rule="evenodd" sketch:type="MSPage">
        <path d="M22.1,15.5 C22.1,11.8549204 19.1450796,8.9 15.5,8.9 C11.8549204,8.9 8.9,11.8549204 8.9,15.5 C8.9,19.1450796 11.8549204,22.1 15.5,22.1 C19.1450796,22.1 22.1,19.1450796 22.1,15.5 L22.1,15.5 Z M30.5,15.5 C30.5,13.8431457 29.1568543,12.5 27.5,12.5 C25.8431457,12.5 24.5,13.8431457 24.5,15.5 C24.5,17.1568543 25.8431457,18.5 27.5,18.5 C29.1568543,18.5 30.5,17.1568543 30.5,15.5 L30.5,15.5 Z M6.5,15.5 C6.5,13.8431457 5.15685433,12.5 3.5,12.5 C1.84314567,12.5 0.5,13.8431457 0.5,15.5 C0.5,17.1568543 1.84314567,18.5 3.5,18.5 C5.15685433,18.5 6.5,17.1568543 6.5,15.5 L6.5,15.5 Z M18.5,27.5 C18.5,25.8431457 17.1568543,24.5 15.5,24.5 C13.8431457,24.5 12.5,25.8431457 12.5,27.5 C12.5,29.1568543 13.8431457,30.5 15.5,30.5 C17.1568543,30.5 18.5,29.1568543 18.5,27.5 L18.5,27.5 Z M25.7,23.9 C25.7,22.9058874 24.8941126,22.1 23.9,22.1 C22.9058874,22.1 22.1,22.9058874 22.1,23.9 C22.1,24.8941126 22.9058874,25.7 23.9,25.7 C24.8941126,25.7 25.7,24.8941126 25.7,23.9 L25.7,23.9 Z M8.9,23.9 C8.9,22.9058874 8.0941126,22.1 7.1,22.1 C6.1058874,22.1 5.3,22.9058874 5.3,23.9 C5.3,24.8941126 6.1058874,25.7 7.1,25.7 C8.0941126,25.7 8.9,24.8941126 8.9,23.9 L8.9,23.9 Z M8.9,7.1 C8.9,6.1058874 8.0941126,5.3 7.1,5.3 C6.1058874,5.3 5.3,6.1058874 5.3,7.1 C5.3,8.0941126 6.1058874,8.9 7.1,8.9 C8.0941126,8.9 8.9,8.0941126 8.9,7.1 L8.9,7.1 Z M18.5,3.5 C18.5,1.84314567 17.1568543,0.5 15.5,0.5 C13.8431457,0.5 12.5,1.84314567 12.5,3.5 C12.5,5.15685433 13.8431457,6.5 15.5,6.5 C17.1568543,6.5 18.5,5.15685433 18.5,3.5 L18.5,3.5 Z M25.7,7.1 C25.7,6.1058874 24.8941126,5.3 23.9,5.3 C22.9058874,5.3 22.1,6.1058874 22.1,7.1 C22.1,8.0941126 22.9058874,8.9 23.9,8.9 C24.8941126,8.9 25.7,8.0941126 25.7,7.1 L25.7,7.1 Z" id="Oval-10" fill="#000000" sketch:type="MSShapeGroup"></path>
    </g>
</svg>