<?xml version="1.0" encoding="UTF-8" standalone="no"?>
<svg width="24px" height="24px" viewBox="0 0 24 24" version="1.1" xmlns="http://www.w3.org/2000/svg" xmlns:xlink="http://www.w3.org/1999/xlink" xmlns:sketch="http://www.bohemiancoding.com/sketch/ns">
    <title>plus</title>
    <description>Created with Sketch (http://www.bohemiancoding.com/sketch)</description>
    <defs></defs>
    <g id="Page-1" stroke="none" stroke-width="1" fill="none" fill-rule="evenodd" sketch:type="MSPage">
        <path d="M2.64092676,11.3766551 C2.64092676,10.8243703 3.08864201,10.3766551 3.64092676,10.3766551 L10.6409268,10.3766551 L10.6409268,3.36884882 C10.6409268,2.81656407 11.088642,2.36884882 11.6409268,2.36884882 C12.1932115,2.36884882 12.6409268,2.81656407 12.6409268,3.36884882 L12.6409268,10.3766551 L19.6409268,10.3766551 C20.1932115,10.3766551 20.6409268,10.8243703 20.6409268,11.3766551 C20.6409268,11.9289398 20.1932115,12.3766551 19.6409268,12.3766551 L12.6409268,12.3766551 L12.6409268,19.3855738 C12.6409268,19.9378586 12.1932115,20.3855738 11.6409268,20.3855738 C11.088642,20.3855738 10.6409268,19.9378586 10.6409268,19.3855738 L10.6409268,12.3766551 L3.64092676,12.3766551 C3.08864201,12.3766551 2.64092676,11.9289398 2.64092676,11.3766551 Z" id="Line-copy" fill="#000000" sketch:type="MSShapeGroup"></path>
    </g>
</svg>