<?xml version="1.0" encoding="UTF-8" standalone="no"?>
<svg width="16px" height="16px" viewBox="0 0 16 16" version="1.1" xmlns="http://www.w3.org/2000/svg" xmlns:xlink="http://www.w3.org/1999/xlink" xmlns:sketch="http://www.bohemiancoding.com/sketch/ns">
    <title>plus-s</title>
    <description>Created with Sketch (http://www.bohemiancoding.com/sketch)</description>
    <defs></defs>
    <g id="Page-1" stroke="none" stroke-width="1" fill="none" fill-rule="evenodd" sketch:type="MSPage">
        <g id="Line-+-Line" sketch:type="MSLayerGroup" transform="translate(11.020815, -1.272078) rotate(-45.000000) translate(-11.020815, 1.272078) translate(2.020815, -10.272078)"></g>
        <path d="M0.640926763,7.37665507 C0.640926763,6.82437032 1.08864201,6.37665507 1.64092676,6.37665507 L6.64092676,6.37665507 L6.64092676,1.36884882 C6.64092676,0.816564075 7.08864201,0.368848824 7.64092676,0.368848824 C8.19321151,0.368848824 8.64092676,0.816564075 8.64092676,1.36884882 L8.64092676,6.37665507 L13.6409268,6.37665507 C14.1932115,6.37665507 14.6409268,6.82437032 14.6409268,7.37665507 C14.6409268,7.92893982 14.1932115,8.37665507 13.6409268,8.37665507 L8.64092676,8.37665507 L8.64092676,13.3855738 C8.64092676,13.9378586 8.19321151,14.3855738 7.64092676,14.3855738 C7.08864201,14.3855738 6.64092676,13.9378586 6.64092676,13.3855738 L6.64092676,8.37665507 L1.64092676,8.37665507 C1.08864201,8.37665507 0.640926763,7.92893982 0.640926763,7.37665507 Z" id="Line" fill="#000000" sketch:type="MSShapeGroup"></path>
        <path d="M-21.3590732,-1.62334493 C-21.3590732,-2.17562968 -20.911358,-2.62334493 -20.3590732,-2.62334493 L-13.3590732,-2.62334493 L-13.3590732,-9.63115118 C-13.3590732,-10.1834359 -12.911358,-10.6311512 -12.3590732,-10.6311512 C-11.8067885,-10.6311512 -11.3590732,-10.1834359 -11.3590732,-9.63115118 L-11.3590732,-2.62334493 L-4.35907324,-2.62334493 C-3.80678849,-2.62334493 -3.35907324,-2.17562968 -3.35907324,-1.62334493 C-3.35907324,-1.07106018 -3.80678849,-0.623344934 -4.35907324,-0.623344934 L-11.3590732,-0.623344934 L-11.3590732,6.38557383 C-11.3590732,6.93785858 -11.8067885,7.38557383 -12.3590732,7.38557383 C-12.911358,7.38557383 -13.3590732,6.93785858 -13.3590732,6.38557383 L-13.3590732,-0.623344934 L-20.3590732,-0.623344934 C-20.911358,-0.623344934 -21.3590732,-1.07106018 -21.3590732,-1.62334493 Z" id="Line-copy" fill="#000000" sketch:type="MSShapeGroup" transform="translate(-12.359073, -1.631151) rotate(-315.000000) translate(12.359073, 1.631151) "></path>
    </g>
</svg>