<?xml version="1.0" encoding="UTF-8" standalone="no"?>
<svg width="563px" height="563px" viewBox="0 0 563 563" version="1.1" xmlns="http://www.w3.org/2000/svg" xmlns:xlink="http://www.w3.org/1999/xlink" xmlns:sketch="http://www.bohemiancoding.com/sketch/ns">
    <title>react</title>
    <description>Created with Sketch (http://www.bohemiancoding.com/sketch)</description>
    <defs></defs>
    <g id="Page-1" stroke="none" stroke-width="1" fill="none" fill-rule="evenodd" sketch:type="MSPage">
        <circle id="Oval" fill="#B4B4B4" sketch:type="MSShapeGroup" cx="281.167" cy="283.167" r="50.167"></circle>
        <path d="M454.729834,218.881447 C506.718064,236.77881 538.43,263.239701 538.43,283.628 C538.43,305.345519 504.181902,333.540055 448.572819,351.96497 C404.301723,366.63311 345.069498,374.628 281.529,374.628 C214.778108,374.628 154.877762,366.788897 111.120282,351.832017 C83.7260149,342.46862 61.1031002,330.30006 45.5967325,317.020732 C31.6627729,305.087981 24.628,293.240654 24.628,283.628 C24.628,263.171122 55.1265453,237.077771 105.993559,219.343067 C152.823512,203.01711 215.903449,193.628 281.529,193.628 C346.346562,193.628 407.919462,202.766353 454.729834,218.881447 Z M98.0927071,196.68084 C38.6132382,217.418262 0.628,249.916933 0.628,283.628 C0.628,318.445464 41.4058366,353.366749 103.357838,374.542024 C149.924994,390.459289 212.343947,398.628 281.529,398.628 C347.465182,398.628 409.189245,390.296774 456.121142,374.747043 C520.526175,353.407771 562.43,318.910706 562.43,283.628 C562.43,249.795077 523.21936,217.07716 462.542111,196.188534 C413.062603,179.154553 348.874063,169.628 281.529,169.628 C213.353897,169.628 147.631977,179.410355 98.0927071,196.68084 Z" id="Shape" fill="#B4B4B4" sketch:type="MSShapeGroup"></path>
        <path d="M311.533764,101.494118 C353.009783,65.3994635 391.774502,51.1473018 409.43629,61.3323574 C428.249756,72.1814456 435.564909,115.935746 423.744815,173.311712 C414.334311,218.990546 391.669338,274.295895 359.926701,329.339188 C326.579861,387.163867 289.865059,435.136796 255.047511,465.571086 C233.250813,484.624465 211.407895,498.142855 192.157837,504.941436 C174.859903,511.050581 161.082354,511.225912 152.754664,506.423616 C135.033769,496.203715 127.666346,456.748845 137.715363,403.824507 C146.96635,355.102314 170.345466,295.768552 203.131275,238.916852 C235.511904,182.768231 274.188512,133.994478 311.533764,101.494118 Z M114.13663,399.347527 C102.386258,461.232254 111.56224,510.372527 140.764955,527.214164 C170.927554,544.607908 221.55,526.72948 270.842657,483.640767 C307.895764,451.252358 346.154363,401.262245 380.717281,341.328842 C413.656691,284.210284 437.275115,226.578397 447.251178,178.154325 C460.940983,111.702587 451.990588,58.1673721 421.425665,40.5416169 C392.117307,23.6403127 344.186413,41.2624926 295.778308,83.3898199 C256.303605,117.743373 215.984046,168.588995 182.340747,226.927109 C148.281197,285.98752 123.922833,347.806509 114.13663,399.347527 Z" id="Shape" fill="#B4B4B4" sketch:type="MSShapeGroup"></path>
        <path d="M138.285698,166.92279 C127.727802,112.963564 134.740099,72.2609178 152.38503,62.0463499 C171.180446,51.1651203 212.741125,66.6791201 256.545454,105.574194 C291.420628,136.539389 328.01525,183.794812 359.850752,238.786206 C393.294225,296.554705 416.520956,352.321869 425.500394,397.686083 C431.122014,426.085543 431.925198,451.760784 428.201434,471.833563 C424.855302,489.87074 418.126445,501.894443 409.806875,506.710705 C392.102295,516.960119 354.239954,503.638713 313.407214,468.501137 C275.81677,436.153755 236.08754,386.266419 203.206192,329.469697 C170.732189,273.374913 147.791886,215.508432 138.285698,166.92279 Z M297.752803,486.692877 C345.498901,527.779567 392.655932,544.371197 421.831169,527.48127 C451.96429,510.03698 461.756811,457.25084 449.04359,393.025836 C439.487596,344.748852 415.284247,286.636838 380.621228,226.76176 C347.58548,169.697106 309.451346,120.453679 272.48034,87.627623 C221.747172,42.5802413 170.895759,23.5981451 140.3607,41.2758063 C111.080253,58.2261193 102.409803,108.553462 114.732315,171.531277 C124.780535,222.887215 148.695339,283.211857 182.43573,341.494168 C216.594496,400.497404 257.987674,452.474133 297.752803,486.692877 Z" id="Shape" fill="#B4B4B4" sketch:type="MSShapeGroup"></path>
    </g>
</svg>