<?xml version="1.0" encoding="UTF-8" standalone="no"?>
<svg width="16px" height="16px" viewBox="0 0 16 16" version="1.1" xmlns="http://www.w3.org/2000/svg" xmlns:xlink="http://www.w3.org/1999/xlink" xmlns:sketch="http://www.bohemiancoding.com/sketch/ns">
    <title>reload</title>
    <description>Created with Sketch (http://www.bohemiancoding.com/sketch)</description>
    <defs></defs>
    <g id="Page-1" stroke="none" stroke-width="1" fill="none" fill-rule="evenodd" sketch:type="MSPage">
        <path d="M8,13 C5.793,13 4,11.205 4,9 C4,6.795 5.793,5 8,5 L9.18,5.013 L8.598,5.595 L10.012,7.009 L12.30562,4.71232798 C12.6990566,4.31836782 12.6963053,3.67794745 12.30562,3.28804188 L10.012,0.999 L8.598,2.413 L9.188,2.999 L8,2.999 C4.687,2.999 2,5.685 2,8.999 C2,12.313 4.688,14.999 8,14.999 C11.2807625,14.999 13.3109131,12.5692749 13.8206177,10.430603 C13.8895264,10.2097168 13.8892283,10.108235 13.8892283,10.108235 C13.9749795,9.56514189 13.6009414,9.07545897 13.0434797,9.01334877 L13.133095,9.02333335 C12.5802497,8.9617375 12.0340773,9.35869597 11.9166107,9.89434242 L11.876709,10.0762939 C11.5079346,11.4043579 10.207,13 8,13 Z" id="Shape" fill="#444444" sketch:type="MSShapeGroup"></path>
    </g>
</svg>