<?xml version="1.0" encoding="UTF-8" standalone="no"?>
<svg width="16px" height="16px" viewBox="0 0 16 16" version="1.1" xmlns="http://www.w3.org/2000/svg" xmlns:xlink="http://www.w3.org/1999/xlink" xmlns:sketch="http://www.bohemiancoding.com/sketch/ns">
    <title>ruler-s</title>
    <description>Created with Sketch (http://www.bohemiancoding.com/sketch)</description>
    <defs></defs>
    <g id="Page-1" stroke="none" stroke-width="1" fill="none" fill-rule="evenodd" sketch:type="MSPage">
        <path d="M0.356471393,4.64644661 C-0.197424925,4.64644661 -0.646446609,5.09742179 -0.646446609,5.63722458 L-0.646446609,9.65566864 C-0.646446609,10.2028602 -0.196048456,10.6464466 0.356471393,10.6464466 L15.1894702,10.6464466 C15.7433665,10.6464466 16.1923882,10.1954714 16.1923882,9.65566864 L16.1923882,5.63722458 C16.1923882,5.09003302 15.74199,4.64644661 15.1894702,4.64644661 L0.356471393,4.64644661 Z M0.93219415,4.64644661 L0.93219415,7.64644661 L1.98462132,7.64644661 L1.98462132,4.64644661 L0.93219415,4.64644661 Z M3.0370485,4.64644661 L3.0370485,6.64644661 L4.08947567,6.64644661 L4.08947567,4.64644661 L3.0370485,4.64644661 Z M5.14190284,4.64644661 L5.14190284,7.64644661 L6.19433001,7.64644661 L6.19433001,4.64644661 L5.14190284,4.64644661 Z M7.24675719,4.64644661 L7.24675719,6.64644661 L8.29918436,6.64644661 L8.29918436,4.64644661 L7.24675719,4.64644661 Z M9.35161153,4.64644661 L9.35161153,7.64644661 L10.4040387,7.64644661 L10.4040387,4.64644661 L9.35161153,4.64644661 Z M11.4564659,4.64644661 L11.4564659,6.64644661 L12.5088931,6.64644661 L12.5088931,4.64644661 L11.4564659,4.64644661 Z M13.5613202,4.64644661 L13.5613202,7.64644661 L14.6137474,7.64644661 L14.6137474,4.64644661 L13.5613202,4.64644661 Z" id="Rectangle-1" fill="#000000" sketch:type="MSShapeGroup" transform="translate(7.853553, 7.646447) rotate(-45.000000) translate(-7.853553, -7.646447) "></path>
    </g>
</svg>