<?xml version="1.0" encoding="UTF-8" standalone="no"?>
<svg width="32px" height="32px" viewBox="0 0 32 32" version="1.1" xmlns="http://www.w3.org/2000/svg" xmlns:xlink="http://www.w3.org/1999/xlink" xmlns:sketch="http://www.bohemiancoding.com/sketch/ns">
    <title>schedule</title>
    <description>Created with Sketch (http://www.bohemiancoding.com/sketch)</description>
    <defs></defs>
    <g id="Page-1" stroke="none" stroke-width="1" fill="none" fill-rule="evenodd" sketch:type="MSPage">
        <path d="M17,23 L17,26.0000398 C17,26.5452911 16.5522847,27 16,27 C15.4438648,27 15,26.5523026 15,26.0000398 L15,23 L10,23 L10,26.0000398 C10,26.5452911 9.55228475,27 9,27 C8.44386482,27 8,26.5523026 8,26.0000398 L8,23 L5.00069463,23 C4.44746922,23 4,22.5522847 4,22 C4,21.4438648 4.44802625,21 5.00069463,21 L8,21 L8,16 L5.00069463,16 C4.44746922,16 4,15.5522847 4,15 C4,14.4438648 4.44802625,14 5.00069463,14 L8,14 L8,10.9999602 C8,10.4547089 8.44771525,10 9,10 C9.55613518,10 10,10.4476974 10,10.9999602 L10,14 L15,14 L15,10.9999602 C15,10.4547089 15.4477153,10 16,10 C16.5561352,10 17,10.4476974 17,10.9999602 L17,14 L22,14 L22,10.9999602 C22,10.4547089 22.4477153,10 23,10 C23.5561352,10 24,10.4476974 24,10.9999602 L24,14 L26.9993054,14 C27.5525308,14 28,14.4477153 28,15 C28,15.5561352 27.5519738,16 26.9993054,16 L24,16 L24,21 L26.9993054,21 C27.5525308,21 28,21.4477153 28,22 C28,22.5561352 27.5519738,23 26.9993054,23 L24,23 L24,26.0000398 C24,26.5452911 23.5522847,27 23,27 C22.4438648,27 22,26.5523026 22,26.0000398 L22,23 L17,23 Z M17,21 L17,16 L22,16 L22,21 L17,21 Z M10,16 L10,21 L15,21 L15,16 L10,16 Z M13,4 L13,2.00292933 C13,1.44902676 12.5561352,1 12,1 C11.4477153,1 11,1.43788135 11,2.00292933 L11,4 L5.99683887,4 C3.78944571,4 2,5.79793835 2,8.00281647 L2,24.9971835 C2,27.207878 3.79412025,29 5.99683887,29 L26.0031611,29 C28.2105543,29 30,27.2020617 30,24.9971835 L30,8.00281647 C30,5.79212198 28.2058797,4 26.0031611,4 L21,4 L21,2.00292933 C21,1.44902676 20.5561352,1 20,1 C19.4477153,1 19,1.43788135 19,2.00292933 L19,4 L13,4 Z M12,8 C12.5522847,8 13,7.55664682 13,6.9906311 L13,5.0093689 C13,4.45190985 12.5561352,4 12,4 C11.4477153,4 11,4.44335318 11,5.0093689 L11,6.9906311 C11,7.54809015 11.4438648,8 12,8 Z M20,8 C20.5522847,8 21,7.55664682 21,6.9906311 L21,5.0093689 C21,4.45190985 20.5561352,4 20,4 C19.4477153,4 19,4.44335318 19,5.0093689 L19,6.9906311 C19,7.54809015 19.4438648,8 20,8 Z" id="Rectangle-31" fill="#000000" sketch:type="MSShapeGroup"></path>
    </g>
</svg>