<?xml version="1.0" encoding="UTF-8" standalone="no"?>
<svg width="32px" height="32px" viewBox="0 0 32 32" version="1.1" xmlns="http://www.w3.org/2000/svg" xmlns:xlink="http://www.w3.org/1999/xlink" xmlns:sketch="http://www.bohemiancoding.com/sketch/ns">
    <title>settings-l</title>
    <description>Created with Sketch (http://www.bohemiancoding.com/sketch)</description>
    <defs></defs>
    <g id="Page-1" stroke="none" stroke-width="1" fill="none" fill-rule="evenodd" sketch:type="MSPage">
        <path d="M32,14.9783689 C32,14.4209098 31.5923746,13.7991632 31.0781751,13.5849224 L28.1408249,12.3610776 C27.6317151,12.1489574 27.0482241,11.5571598 26.8435312,11.0539375 L27.1494688,11.8060625 C26.9421031,11.2962692 26.9385507,10.4733284 27.1461234,9.95654767 L28.3318766,7.00445233 C28.5373947,6.49278684 28.3904385,5.7645493 27.9901238,5.36437619 L26.5888762,3.96362381 C26.1946132,3.56950026 25.4689946,3.41719376 24.9568385,3.62810052 L22.0311615,4.83289948 C21.5240749,5.04171863 20.6970704,5.03934062 20.1905666,4.83030007 L20.9184334,5.13069993 C20.4089875,4.92044516 19.8231791,4.34501767 19.605174,3.83415222 L18.359826,0.915847778 C18.1439788,0.410039017 17.5256468,0 16.9596311,0 L14.9783689,0 C14.4209098,0 13.7935544,0.42011092 13.5831213,0.924000949 L12.3778787,3.80999905 C12.1647638,4.32031068 11.5732134,4.90331976 11.0556597,5.11257208 L11.7683403,4.82442792 C11.2512138,5.03350751 10.4101142,5.03350024 9.90409537,4.8301986 L7.00590463,3.6658014 C6.49343705,3.45990887 5.7645493,3.6064507 5.36437619,4.00662381 L3.96362381,5.40737619 C3.56950026,5.80149974 3.42198457,6.53906982 3.63288644,7.051742 L4.80511356,9.901258 C5.0165759,10.4152926 5.01837054,11.2475047 4.81063722,11.7563443 L5.08036278,11.0956557 C4.87195107,11.606157 4.28564012,12.1984628 3.78504975,12.412515 L0.917950246,13.638485 C0.410980324,13.8552651 -3.55271368e-15,14.4743532 -3.55271368e-15,15.0403689 L-3.55271368e-15,17.0216311 C-3.55271368e-15,17.5790902 0.41771485,18.2050257 0.929951731,18.4184305 L3.77704827,19.6045695 C4.29064643,19.8185415 4.87767872,20.4075047 5.08669698,20.9163443 L4.81530302,20.2556557 C5.02500387,20.766157 5.02621019,21.6008209 4.81922601,22.1168666 L3.66877399,24.9851334 C3.46123975,25.5025505 3.6064507,26.2354507 4.00662381,26.6356238 L5.40737619,28.0363762 C5.80149974,28.4304997 6.54013474,28.5773942 7.05411282,28.3657306 L9.91088718,27.1892694 C10.4262312,26.9770433 11.2642307,26.9714316 11.7724472,27.1727098 L11.0795528,26.8982902 C11.59232,27.1013707 12.1804798,27.6696182 12.3980547,28.1787628 L13.6409453,31.0872372 C13.8563665,31.5913422 14.4743532,32 15.0403689,32 L17.0216311,32 C17.5790902,32 18.1998137,31.5943356 18.4127639,31.0826097 L19.6292361,28.1593903 C19.8400785,27.6527296 20.4254401,27.0703406 20.9301302,26.8613001 L20.2048698,27.1616999 C20.7124914,26.9514452 21.5329895,26.9448686 22.0489099,27.1515809 L24.9960901,28.3324191 C25.5069038,28.5370853 26.2344507,28.3895493 26.6346238,27.9893762 L28.0353762,26.5886238 C28.4294997,26.1945003 28.5811242,25.4680567 28.369357,24.9547176 L27.159643,22.0222824 C26.949972,21.5140245 26.9480896,20.6821598 27.1495625,20.1789375 L26.8484375,20.9310625 C27.0525412,20.4212692 27.6257106,19.834156 28.1400177,19.6148603 L31.0779823,18.3621397 C31.5871986,18.1450146 32,17.5256468 32,16.9596311 L32,14.9783689 Z M27.3444899,17.7438733 C26.841393,17.9782558 26.0129913,18.3475837 25.6300809,18.5108531 L26.4335523,18.1682604 C25.9898073,18.3574691 25.4757948,18.9412299 25.3353212,19.3330774 L25.6300809,18.5108531 C25.4672896,18.964955 25.1690998,19.7505608 24.9685371,20.2542959 L25.3353212,19.3330774 C25.1327519,19.8418523 24.7820573,20.6527856 24.5955774,21.0512753 L24.9685371,20.2542959 C24.7625572,20.6944555 24.7633595,21.4579913 24.9311416,21.8647074 L24.5955774,21.0512753 C24.7809044,21.5005214 25.0832476,22.2893398 25.2697728,22.8100597 L26.3065104,25.7043059 C26.4935312,26.2264096 26.2211887,26.4965596 25.7013023,26.3088173 L22.8116882,25.2653149 C22.2904201,25.0770736 21.460043,24.7610796 21.052237,24.5976852 L21.8678489,24.924474 C21.4173989,24.7439935 20.6560409,24.7875062 20.2598448,24.9773272 L21.052237,24.5976852 C20.6146109,24.8073556 19.8530747,25.145068 19.3370232,25.3578735 L20.2364551,24.9869724 C19.7267949,25.1971423 18.8870235,25.5262312 18.4986055,25.670735 L19.3136336,25.3675187 C18.863506,25.5349804 18.3237257,26.0909764 18.1645019,26.473596 L18.4986055,25.670735 C18.3140852,26.1141429 17.9750817,26.8803106 17.7427988,27.3790581 L16.4517324,30.1511785 C16.2188322,30.6512514 15.83631,30.6505018 15.5987553,30.1524603 L14.278387,27.3842645 C14.0402009,26.8848995 13.6727039,26.0719516 13.4982949,25.6638189 L13.8471129,26.4800842 C13.654466,26.0292733 13.0786256,25.5193599 12.6589562,25.3749009 L13.4982949,25.6638189 C13.0347409,25.5042539 12.247574,25.2130451 11.7256712,25.0077057 L12.6353014,25.365594 C12.1198623,25.1627977 11.3018493,24.8083458 10.9016822,24.6182928 L11.7020164,24.9983988 C11.260004,24.7884721 10.4920519,24.7869845 10.0824216,24.9556762 L10.9016822,24.6182928 C10.4492171,24.8046245 9.66404646,25.1040559 9.139715,25.2900137 L6.31068758,26.2933481 C5.79004509,26.4779976 5.51735991,26.2103124 5.70457009,25.6872367 L6.71466152,22.8649847 C6.90055456,22.3455891 7.21561725,21.5147427 7.37998386,21.1049496 L7.05125064,21.9245358 C7.23280498,21.4718908 7.18788645,20.7074005 6.99578905,20.3098513 L7.37998386,21.1049496 C7.16779893,20.6658289 6.82625155,19.8955192 6.61707703,19.3843183 L6.96919584,20.2448602 C6.76003897,19.7337025 6.44168963,18.9027035 6.29289544,18.4860797 L6.59048382,19.3193272 C6.4261303,18.8591373 5.88452133,18.3159455 5.47614722,18.1458113 L6.29289544,18.4860797 C5.84181785,18.2981547 5.07730491,17.9536191 4.56665133,17.7075479 L1.89130741,16.418366 C1.3890067,16.1763198 1.38182356,15.7918632 1.89397478,15.550853 L4.57716495,14.2881862 C5.08093881,14.0511182 5.9008322,13.6829778 6.29349018,13.5150775 L5.48932821,13.8589366 C5.9334546,13.6690285 6.44368791,13.093488 6.5870069,12.6912064 L6.29349018,13.5150775 C6.45559498,13.060066 6.7589459,12.2676362 6.96072181,11.7705631 L6.61324921,12.6265587 C6.81964625,12.1181014 7.1827502,11.3028877 7.37853628,10.8998599 L6.98696412,11.7059154 C7.20322345,11.2607433 7.20807222,10.4854863 7.03760816,10.0711126 L7.37853628,10.8998599 C7.19024688,10.4421554 6.88913114,9.65413643 6.69903015,9.12026537 L5.70307996,6.32328374 C5.51608849,5.79814532 5.78353826,5.52209185 6.29739561,5.70561173 L9.15349903,6.7256453 C9.66872197,6.90965288 10.4926864,7.22205588 10.8989801,7.38529125 L10.0863927,7.0588205 C10.5351723,7.23912532 11.2944982,7.19744622 11.6900164,7.00960119 L10.8989801,7.38529125 C11.3358574,7.17780336 12.10695,6.84176696 12.6181963,6.63596771 L11.7316898,6.99282581 C12.2443094,6.78647374 13.0778263,6.47112225 13.495783,6.32305217 L12.6598696,6.61919233 C13.1215318,6.45563864 13.6666567,5.91388874 13.8375304,5.50472531 L13.495783,6.32305217 C13.6845249,5.87110273 14.0277561,5.10494474 14.2713095,4.59308987 L15.5473,1.91145233 C15.7868696,1.40796998 16.1741323,1.40228295 16.4108703,1.89582048 L17.726699,4.63898299 C17.9640662,5.13383211 18.3360359,5.95572757 18.4995079,6.33880199 L18.1564903,5.53498658 C18.3459337,5.97892157 18.9302305,6.49287246 19.3223929,6.63314987 L18.4995079,6.33880199 C18.9539747,6.50136583 19.7384449,6.80421778 20.240453,7.01062821 L19.3223929,6.63314987 C19.8294235,6.8416254 20.6434146,7.20600354 21.0463762,7.40137887 L20.240453,7.01062821 C20.6855521,7.22643384 21.4604672,7.23085547 21.8745582,7.06033207 L21.0463762,7.40137887 C21.5037685,7.21302392 22.2993673,6.90750938 22.8203037,6.72010542 L25.7157536,5.67848349 C26.2380744,5.4905815 26.5067852,5.76416259 26.3170622,6.28644385 L25.2625508,9.18936867 C25.0723236,9.7130379 24.7534483,10.5475136 24.5887826,10.9574715 L24.918114,10.1375557 C24.7362293,10.5903827 24.7809763,11.3552677 24.97317,11.7530639 L24.5887826,10.9574715 C24.8010739,11.3968651 25.1409285,12.167945 25.3340423,12.6455317 L24.97317,11.7530639 C25.1724743,12.2459602 25.4823539,13.0637033 25.6306654,13.4818749 L25.3340423,12.6455317 C25.4978627,13.1074312 26.040231,13.6525201 26.4497966,13.8231653 L25.6306654,13.4818749 C26.0830591,13.6703643 26.8575292,14.0181377 27.3575249,14.2572292 L30.1365832,15.5861388 C30.6379077,15.8258656 30.6351374,16.2108284 30.1333739,16.4445897 L27.3444899,17.7438733 Z" id="Shape" fill="#000000" sketch:type="MSShapeGroup"></path>
        <path d="M15.969,22 C19.2815695,22 21.969,19.3125695 21.969,16 C21.969,12.6874305 19.2815695,10 15.969,10 C12.6564305,10 9.969,12.6874305 9.969,16 C9.969,19.3125695 12.6564305,22 15.969,22 Z M15.969,12 C18.177,12 19.969,13.792 19.969,16 C19.969,18.208 18.177,20 15.969,20 C13.761,20 11.969,18.208 11.969,16 C11.969,13.792 13.761,12 15.969,12 Z" id="Path" fill="#000000" sketch:type="MSShapeGroup"></path>
    </g>
</svg>