<?xml version="1.0" encoding="UTF-8" standalone="no"?>
<svg width="32px" height="32px" viewBox="0 0 32 32" version="1.1" xmlns="http://www.w3.org/2000/svg" xmlns:xlink="http://www.w3.org/1999/xlink" xmlns:sketch="http://www.bohemiancoding.com/sketch/ns">
    <title>Untitled 7</title>
    <description>Created with Sketch (http://www.bohemiancoding.com/sketch)</description>
    <defs></defs>
    <g id="Page-1" stroke="none" stroke-width="1" fill="none" fill-rule="evenodd" sketch:type="MSPage">
        <path d="M32,17.969 L32,13.969 L27.219,11.977 C27.086,11.602 26.946,11.239 26.774,10.883 L28.704,6.078 L25.875,3.25 L21.113,5.211 C20.75,5.035 20.379,4.887 19.996,4.75 L17.969,8.8817842e-16 L13.969,8.8817842e-16 L11.992,4.734 C11.594,4.875 11.211,5.023 10.832,5.203 L6.078,3.293 L3.25,6.121 L5.188,10.832 C5,11.219 4.848,11.613 4.703,12.02 L-2.66453526e-15,14.031 L-2.66453526e-15,18.031 L4.707,19.992 C4.852,20.398 5.008,20.793 5.195,21.18 L3.293,25.922 L6.121,28.75 L10.844,26.805 C11.223,26.985 11.61,27.129 12.008,27.266 L14.031,32 L18.031,32 L20.011,27.242 C20.39,27.101 20.765,26.953 21.124,26.781 L25.921,28.703 L28.749,25.875 L26.78,21.102 C26.948,20.743 27.085,20.379 27.218,20.008 L32,17.969 L32,17.969 Z M11.969,16 C11.969,13.792 13.761,12 15.969,12 C18.177,12 19.969,13.792 19.969,16 C19.969,18.208 18.177,20 15.969,20 C13.761,20 11.969,18.208 11.969,16 Z" id="Shape" stroke="#000000" stroke-width="2" sketch:type="MSShapeGroup"></path>
    </g>
</svg>