<?xml version="1.0" encoding="UTF-8" standalone="no"?>
<svg width="16px" height="16px" viewBox="0 0 16 16" version="1.1" xmlns="http://www.w3.org/2000/svg" xmlns:xlink="http://www.w3.org/1999/xlink" xmlns:sketch="http://www.bohemiancoding.com/sketch/ns">
    <title>settings-should</title>
    <description>Created with Sketch (http://www.bohemiancoding.com/sketch)</description>
    <defs></defs>
    <g id="Page-1" stroke="none" stroke-width="1" fill="none" fill-rule="evenodd" sketch:type="MSPage">
        <path d="M14.3646224,12.8475113 C13.900878,13.455462 13.3520083,13.9949904 12.7357983,14.4483114 L10.8626372,13.4869069 C10.5109955,13.6707422 10.1394868,13.8217653 9.75217479,13.9359125 L9.07257529,15.9287191 C8.72173978,15.9757293 8.36370426,16 8,16 C7.58842411,16 7.18410742,15.9689197 6.78926895,15.908978 L6.14450589,13.9044722 C5.75947574,13.7835959 5.39065959,13.6260976 5.04213944,13.4360594 L3.15249013,14.3646235 C2.54453891,13.9008789 2.00501007,13.3520089 1.55168865,12.7357984 L2.51309311,10.8626371 C2.3292584,10.5109966 2.17823562,10.1394891 2.06408855,9.75217852 L0.0712813485,9.07257899 C0.0242708814,8.7217423 0,8.36370553 0,8 C0,7.58842499 0.0310801946,7.18410915 0.0910215888,6.78927147 L2.09552699,6.14450837 C2.21640315,5.75947834 2.37390116,5.3906623 2.56393907,5.04214221 L1.63537517,3.15249183 C2.09911979,2.54454025 2.64798994,2.0050111 3.26420058,1.55168941 L5.13736161,2.51309377 C5.48900305,2.32925848 5.86051155,2.17823529 6.24782329,2.06408802 L6.92742455,0.0712808733 C7.27826012,0.0242707178 7.63629569,0 8,0 C8.41157547,0 8.81589175,0.0310802633 9.21072984,0.0910217876 L9.8554907,2.0955267 C10.2405219,2.21640316 10.6093391,2.37390171 10.9578601,2.56394033 L12.8475104,1.63537685 C13.4554613,2.09912128 13.9949898,2.64799106 14.4483111,3.2642012 L13.4869064,5.13736199 C13.6707423,5.48900459 13.8217658,5.86051438 13.9359132,6.2478275 L15.9287197,6.9274289 C15.9757295,7.27826307 16,7.63629719 16,8 C16,8.41157631 15.9689196,8.81589339 15.9089778,9.21073225 L13.9044728,9.85549242 C13.7835962,10.2405237 13.6260974,10.6093409 13.4360586,10.957862 L14.3646224,12.8475113 Z M10.875,8 C10.875,6.41218127 9.58781873,5.125 8,5.125 C6.41218127,5.125 5.125,6.41218127 5.125,8 C5.125,9.58781873 6.41218127,10.875 8,10.875 C9.58781873,10.875 10.875,9.58781873 10.875,8 Z" id="Star-1-copy" fill="#000000" sketch:type="MSShapeGroup"></path>
    </g>
</svg>