<?xml version="1.0" encoding="UTF-8" standalone="no"?>
<svg width="32px" height="32px" viewBox="0 0 32 32" version="1.1" xmlns="http://www.w3.org/2000/svg" xmlns:xlink="http://www.w3.org/1999/xlink" xmlns:sketch="http://www.bohemiancoding.com/sketch/ns">
    <title>user-card</title>
    <description>Created with Sketch (http://www.bohemiancoding.com/sketch)</description>
    <defs></defs>
    <g id="Page-1" stroke="none" stroke-width="1" fill="none" fill-rule="evenodd" sketch:type="MSPage">
        <g id="user-card" sketch:type="MSLayerGroup" transform="translate(0.000000, 4.000000)" fill="#000000">
            <g id="Page-1" sketch:type="MSShapeGroup">
                <rect id="Rectangle-2" x="18" y="7" width="10.0266335" height="1" rx="2"></rect>
                <rect id="Rectangle-2-copy" x="18" y="11" width="10.0266335" height="1" rx="2"></rect>
                <rect id="Rectangle-2-copy-2" x="18" y="15" width="10.0266335" height="1" rx="2"></rect>
                <path d="M10,5 C8.34314568,5 7,6.3431457 7,8 C7,9.6568543 8.34314568,11 10,11 C11.6568543,11 13,9.6568543 13,8 C13,6.3431457 11.6568543,5 10,5 L10,5 Z M10,10 C8.89543044,10 8,9.1045696 8,8 C8,6.8954304 8.89543043,6 10,6 C11.1045696,6 12,6.8954304 12,8 C12,9.1045696 11.1045696,10 10,10 L10,10 Z" id="Oval-6"></path>
                <path d="M4,16.0945377 C4,16.5946107 4.39926147,17 4.89214664,17 L15.1078534,17 C15.6005724,17 16,16.590829 16,16.0945377 L16,15.633728 C16,13.6268755 14.4064927,12 12.4483108,12 L7.55168924,12 C5.59014544,12 4,13.6302685 4,15.633728 L4,16.0945377 L4,16.0945377 Z M7.55168924,13 L12.4483108,13 C13.8503434,13 15,14.1754435 15,15.633728 L15,16.0945377 C15,16.0437725 15.0430047,16 15.1078534,16 L4.89214664,16 C4.95497627,16 5,16.0457016 5,16.0945377 L5,15.633728 C5,14.1761944 6.14889836,13 7.55168924,13 L7.55168924,13 Z" id="Rectangle-9"></path>
                <path d="M0,2.00086422 L0,20.9991358 C0,22.1041826 0.889261723,23 2.00174332,23 L29.9982567,23 C31.103789,23 32,22.0983727 32,20.9991358 L32,2.00086422 C32,0.89581743 31.1107383,0 29.9982567,0 L2.00174332,0 C0.89621101,0 0,0.90162726 0,2.00086422 L0,2.00086422 Z M30,2.90554382 L30,20.0944562 C30,20.5914497 29.5792069,21 29.0650396,21 L2.93496043,21 C2.41476042,21 2,20.5971469 2,20.0944562 L2,2.90554382 C2,2.40855026 2.42079303,2 2.93496043,2 L29.0650396,2 C29.5852395,2 30,2.40285314 30,2.90554382 Z" id="Rectangle-1"></path>
            </g>
        </g>
    </g>
</svg>