<?xml version="1.0" encoding="UTF-8" standalone="no"?>
<svg width="32px" height="32px" viewBox="0 0 32 32" version="1.1" xmlns="http://www.w3.org/2000/svg" xmlns:xlink="http://www.w3.org/1999/xlink" xmlns:sketch="http://www.bohemiancoding.com/sketch/ns">
    <title>user</title>
    <description>Created with Sketch (http://www.bohemiancoding.com/sketch)</description>
    <defs></defs>
    <g id="Page-1" stroke="none" stroke-width="1" fill="none" fill-rule="evenodd" sketch:type="MSPage">
        <path d="M15.5,16 C19.089851,16 22,13.089851 22,9.5 C22,5.91014898 19.089851,3 15.5,3 C11.910149,3 9,5.91014898 9,9.5 C9,13.089851 11.910149,16 15.5,16 Z M15.5,14 C13.0147185,14 11,11.9852815 11,9.5 C11,7.01471848 13.0147185,5 15.5,5 C17.9852815,5 20,7.01471849 20,9.5 C20,11.9852815 17.9852815,14 15.5,14 Z" id="Oval-6-copy-2" fill="#000000" sketch:type="MSShapeGroup"></path>
        <path d="M26.9926701,29 C28.1012878,29 29,28.0998238 29,27.007983 L29,25.9942017 C29,21.579126 25.4146085,18 21.0086992,18 L9.9913008,18 C5.57782724,18 2,21.5865907 2,25.9942017 L2,27.007983 C2,28.1081436 2.89833832,29 4.00732994,29 L26.9926701,29 Z M9.9913008,20 L21.0086992,20 C24.3127816,20 27,22.6864374 27,25.9942017 L27,27.007983 C27,26.9959834 4.00732994,27 4.00732994,27 C3.99968018,27 4,25.9942017 4,25.9942017 C4,22.6881312 6.68542366,20 9.9913008,20 Z" id="Rectangle-9-copy-2" fill="#000000" sketch:type="MSShapeGroup"></path>
    </g>
</svg>