<?xml version="1.0" encoding="UTF-8" standalone="no"?>
<svg width="16px" height="16px" viewBox="0 0 16 16" version="1.1" xmlns="http://www.w3.org/2000/svg" xmlns:xlink="http://www.w3.org/1999/xlink" xmlns:sketch="http://www.bohemiancoding.com/sketch/ns">
    <title>Untitled</title>
    <description>Created with Sketch (http://www.bohemiancoding.com/sketch)</description>
    <defs></defs>
    <g id="Page-1" stroke="none" stroke-width="1" fill="none" fill-rule="evenodd" sketch:type="MSPage">
        <path d="M8.99703014,1.74480274 L15.0029699,12.2551973 C15.5536144,13.2188252 15.1054862,14 14.0059397,14 L1.99406028,14 C0.892771196,14 0.441510081,13.2273574 0.997030139,12.2551973 L7.00296986,1.74480274 C7.5536144,0.781174797 8.44151008,0.772642642 8.99703014,1.74480274 Z M8.88427734,8.01745605 L8.91174316,12.5202637 L7.14774316,12.5202637 L7.12027734,8.01745605 L8.88427734,8.01745605 Z M9.01068115,6.02557373 C9.01068115,5.47328895 8.56296593,5.02557373 8.01068115,5.02557373 C7.45839638,5.02557373 7.01068115,5.47328895 7.01068115,6.02557373 C7.01068115,6.57785851 7.45839638,7.02557373 8.01068115,7.02557373 C8.56296593,7.02557373 9.01068115,6.57785851 9.01068115,6.02557373 Z" id="Triangle-1" fill="#000000" sketch:type="MSShapeGroup"></path>
    </g>
</svg>