<?xml version="1.0" encoding="UTF-8" standalone="no"?>
<svg width="16px" height="16px" viewBox="0 0 16 16" version="1.1" xmlns="http://www.w3.org/2000/svg" xmlns:xlink="http://www.w3.org/1999/xlink" xmlns:sketch="http://www.bohemiancoding.com/sketch/ns">
    <title>x-s</title>
    <description>Created with Sketch (http://www.bohemiancoding.com/sketch)</description>
    <defs></defs>
    <g id="Page-1" stroke="none" stroke-width="1" fill="none" fill-rule="evenodd" sketch:type="MSPage">
        <path d="M-1.35907324,7.37665507 C-1.35907324,6.82437032 -0.911357987,6.37665507 -0.359073237,6.37665507 L6.64092676,6.37665507 L6.64092676,-0.631151176 C6.64092676,-1.18343593 7.08864201,-1.63115118 7.64092676,-1.63115118 C8.19321151,-1.63115118 8.64092676,-1.18343593 8.64092676,-0.631151176 L8.64092676,6.37665507 L15.6409268,6.37665507 C16.1932115,6.37665507 16.6409268,6.82437032 16.6409268,7.37665507 C16.6409268,7.92893982 16.1932115,8.37665507 15.6409268,8.37665507 L8.64092676,8.37665507 L8.64092676,15.3855738 C8.64092676,15.9378586 8.19321151,16.3855738 7.64092676,16.3855738 C7.08864201,16.3855738 6.64092676,15.9378586 6.64092676,15.3855738 L6.64092676,8.37665507 L-0.359073237,8.37665507 C-0.911357987,8.37665507 -1.35907324,7.92893982 -1.35907324,7.37665507 Z" id="Line-copy" fill="#000000" sketch:type="MSShapeGroup" transform="translate(7.640927, 7.368849) rotate(-315.000000) translate(-7.640927, -7.368849) "></path>
    </g>
</svg>