<?xml version="1.0" encoding="UTF-8" standalone="no"?>
<svg width="24px" height="24px" viewBox="0 0 24 24" version="1.1" xmlns="http://www.w3.org/2000/svg" xmlns:xlink="http://www.w3.org/1999/xlink" xmlns:sketch="http://www.bohemiancoding.com/sketch/ns">
    <title>x</title>
    <description>Created with Sketch (http://www.bohemiancoding.com/sketch)</description>
    <defs></defs>
    <g id="Page-1" stroke="none" stroke-width="1" fill="none" fill-rule="evenodd" sketch:type="MSPage">
        <path d="M-0.187500362,11.3766551 C-0.187500362,10.8243703 0.260214889,10.3766551 0.812499638,10.3766551 L10.6409268,10.3766551 L10.6409268,0.5404217 C10.6409268,-0.0118630501 11.088642,-0.4595783 11.6409268,-0.4595783 C12.1932115,-0.4595783 12.6409268,-0.0118630501 12.6409268,0.5404217 L12.6409268,10.3766551 L22.4693539,10.3766551 C23.0216386,10.3766551 23.4693539,10.8243703 23.4693539,11.3766551 C23.4693539,11.9289398 23.0216386,12.3766551 22.4693539,12.3766551 L12.6409268,12.3766551 L12.6409268,22.214001 C12.6409268,22.7662857 12.1932115,23.214001 11.6409268,23.214001 C11.088642,23.214001 10.6409268,22.7662857 10.6409268,22.214001 L10.6409268,12.3766551 L0.812499638,12.3766551 C0.260214889,12.3766551 -0.187500362,11.9289398 -0.187500362,11.3766551 Z" id="Line-copy-2" fill="#000000" sketch:type="MSShapeGroup" transform="translate(11.640927, 11.368849) rotate(-315.000000) translate(-11.640927, -11.368849) "></path>
    </g>
</svg>